<svg xmlns="http://www.w3.org/2000/svg" viewBox="0 0 16 16"><defs><style>.cls-1,.cls-3{fill:#00a69c;}.cls-1{opacity:0;}.cls-2{fill:#f16a37;}.cls-4{fill:#d9a529;}.cls-5{fill:#90bf3e;}</style></defs><g id="Layer_2" data-name="Layer 2"><g id="Layer_2-2" data-name="Layer 2"><rect class="cls-1" width="16" height="16"/><path class="cls-2" d="M15.8,10.74,10.12,8.15a.47.47,0,0,1-.23-.62L11.48,4a.09.09,0,0,1,.16,0l.5.75L11,7.3a.15.15,0,0,0,.07.19L15.2,9.37,16,10.53A.15.15,0,0,1,15.8,10.74Z"/><path class="cls-3" d="M.2,5.25l5.68,2.6a.46.46,0,0,1,.23.61L4.52,12a.09.09,0,0,1-.16,0l-.5-.75L5,8.69a.14.14,0,0,0-.07-.18L.8,6.62,0,5.46A.15.15,0,0,1,.2,5.25Z"/><path class="cls-4" d="M11.13,1.23,8.54,6.92a.47.47,0,0,1-.61.23l-3.5-1.6a.09.09,0,0,1,0-.16l.75-.5L7.69,6A.14.14,0,0,0,7.88,6L9.77,1.83l1.16-.77A.14.14,0,0,1,11.13,1.23Z"/><path class="cls-5" d="M4.89,14.77,7.48,9.08a.47.47,0,0,1,.61-.23l3.49,1.6a.09.09,0,0,1,0,.16l-.75.5L8.32,10a.13.13,0,0,0-.18.06L6.25,14.17l-1.16.77A.14.14,0,0,1,4.89,14.77Z"/></g></g></svg>