<svg xmlns="http://www.w3.org/2000/svg" viewBox="0 0 97.47 23.33"><defs><style>.cls-1{fill:#f16a37;}.cls-2{fill:#00a69c;}.cls-3{fill:#d9a529;}.cls-4{fill:#90bf3e;}.cls-5{fill:#131627;}</style></defs><g id="Layer_2" data-name="Layer 2"><g id="Layer_2-2" data-name="Layer 2"><path class="cls-1" d="M26.47,16.25,17,11.91a.77.77,0,0,1-.38-1L19.24,5a.15.15,0,0,1,.26,0l.84,1.26L18.41,10.5a.24.24,0,0,0,.12.31L25.47,14l1.29,1.94A.23.23,0,0,1,26.47,16.25Z"/><path class="cls-2" d="M.33,7.07l9.52,4.34a.78.78,0,0,1,.39,1L7.57,18.28a.16.16,0,0,1-.27,0l-.84-1.26,1.93-4.23a.23.23,0,0,0-.12-.3L1.33,9.35,0,7.41A.23.23,0,0,1,.33,7.07Z"/><path class="cls-3" d="M18.64.33,14.3,9.85a.77.77,0,0,1-1,.39L7.43,7.57a.16.16,0,0,1,0-.27l1.25-.84,4.23,1.93a.24.24,0,0,0,.31-.12l3.16-6.94L18.3,0A.23.23,0,0,1,18.64.33Z"/><path class="cls-4" d="M8.19,23l4.34-9.52a.76.76,0,0,1,1-.38l5.85,2.66a.15.15,0,0,1,0,.27l-1.25.84-4.23-1.93a.24.24,0,0,0-.31.12L10.47,22,8.53,23.29A.23.23,0,0,1,8.19,23Z"/><path class="cls-5" d="M33.49,13.1a4.1,4.1,0,0,1-1.67-1,2.16,2.16,0,0,1-.64-1.59,2.28,2.28,0,0,1,3.88-1.61,2.9,2.9,0,0,1,.64,1.16l-1.15.45a2.23,2.23,0,0,0-.38-.73,1,1,0,0,0-.71-.29,1,1,0,0,0-.73.3,1,1,0,0,0-.3.72,1,1,0,0,0,.3.72,3.25,3.25,0,0,0,.93.6A4.84,4.84,0,0,1,35.6,13a3,3,0,0,1,0,4.3,3,3,0,0,1-4.29,0,3.33,3.33,0,0,1-.9-2l1.22-.45a2.53,2.53,0,0,0,.57,1.53,1.79,1.79,0,0,0,2.52,0,1.76,1.76,0,0,0,.52-1.27,1.71,1.71,0,0,0-.52-1.25A3.64,3.64,0,0,0,33.49,13.1Z"/><path class="cls-5" d="M39.66,16.68a1.82,1.82,0,0,0,1.15.28,2.11,2.11,0,0,0,1.54-.64l.33-.37,1.25.45a9.18,9.18,0,0,1-.66.84,3.35,3.35,0,0,1-2.46,1,3.48,3.48,0,0,1-3.46-3.47,3.48,3.48,0,0,1,3.46-3.47,3.39,3.39,0,0,1,2.16.74l.3.28.34.38-.63.64Zm2.11-3.9a1.79,1.79,0,0,0-1-.16,2.15,2.15,0,0,0-2.16,2.17,1.77,1.77,0,0,0,.16,1Z"/><path class="cls-5" d="M46.66,8.35v9.74H45.4V8.35Z"/><path class="cls-5" d="M50,13.09v5H48.68v-5h-.56V11.83h.56V10.7a2,2,0,0,1,.6-1.34,1.89,1.89,0,0,1,1.32-.53,3.81,3.81,0,0,1,1.15.26l-.42,1.19a2.58,2.58,0,0,0-.68-.22.74.74,0,0,0-.49.21.63.63,0,0,0-.21.48v1.08h1.12v1.26Z"/><path class="cls-5" d="M56.13,16a2.15,2.15,0,0,1-.55,1.57,2,2,0,0,1-1.43.59,1.89,1.89,0,0,1-1.42-.59A2.16,2.16,0,0,1,52.14,16l1-.39a2.09,2.09,0,0,0,.43,1.14.8.8,0,0,0,.53.16h0a.81.81,0,0,0,.57-.22,1.11,1.11,0,0,0,.18-.74V8.36h1.26Z"/><path class="cls-5" d="M61.09,11.32a3.47,3.47,0,0,1,3.46,3.47,3.46,3.46,0,1,1-5.9-2.45A3.31,3.31,0,0,1,61.09,11.32Zm-1.53,1.94a2.15,2.15,0,0,0,0,3.06,2.09,2.09,0,0,0,1.53.64,2.13,2.13,0,0,0,1.54-.64,2.17,2.17,0,0,0-1.54-3.7A2.05,2.05,0,0,0,59.56,13.26Z"/><path class="cls-5" d="M68.67,18.18a2.55,2.55,0,0,1-1.91-.73A2.47,2.47,0,0,1,66,15.64V11.83h1.26v3.76a1.24,1.24,0,0,0,.4.93,1.39,1.39,0,0,0,1.92,0,1.25,1.25,0,0,0,.4-.94V11.83h1.26v3.81a2.5,2.5,0,0,1-.74,1.81A2.48,2.48,0,0,1,68.67,18.18Z"/><path class="cls-5" d="M74.34,12.68a2.26,2.26,0,0,1,1.74-1V13a1.62,1.62,0,0,0-1.1.45,2,2,0,0,0-.64,1.44v3.22H73.09V11.83h1.25Z"/><path class="cls-5" d="M78.7,13.51v4.58H77.43V11.83H78.7v.73a1.54,1.54,0,0,1,1.58-1.07,2,2,0,0,1,1.62.72A2.87,2.87,0,0,1,82.52,14v4.07H81.26v-4a1.24,1.24,0,0,0-.4-.93,1.37,1.37,0,0,0-1.88,0A1.43,1.43,0,0,0,78.7,13.51Z"/><path class="cls-5" d="M86.31,16.68a1.8,1.8,0,0,0,1.15.28A2.13,2.13,0,0,0,89,16.32l.32-.37,1.26.45a8.76,8.76,0,0,1-.67.84A3.46,3.46,0,0,1,84,14.79a3.47,3.47,0,0,1,3.46-3.47,3.36,3.36,0,0,1,2.15.74l.3.28.35.38-.64.64Zm2.1-3.9a1.77,1.77,0,0,0-1-.16,2.17,2.17,0,0,0-2.17,2.17,1.75,1.75,0,0,0,.17,1Z"/><path class="cls-5" d="M93.46,20.2H92.12l1.67-3.5-2.33-4.87h1.42l1.59,3.43,1.58-3.43h1.42Z"/></g></g></svg>