<svg xmlns="http://www.w3.org/2000/svg" viewBox="0 0 67.83 40.34"><defs><style>.cls-1{fill:#f16a37;}.cls-2{fill:#00a69c;}.cls-3{fill:#d9a529;}.cls-4{fill:#90bf3e;}.cls-5{font-size:12.46px;fill:#131627;font-family:CaviarDreams-Bold, Caviar Dreams;font-weight:700;}.cls-6{letter-spacing:0.01em;}.cls-7{letter-spacing:-0.01em;}</style></defs><g id="Layer_2" data-name="Layer 2"><g id="Layer_2-2" data-name="Layer 2"><path class="cls-1" d="M47,16.25l-9.52-4.34a.78.78,0,0,1-.39-1L39.75,5A.16.16,0,0,1,40,5l.84,1.26L38.93,10.5a.25.25,0,0,0,.11.31L46,14l1.3,1.94A.23.23,0,0,1,47,16.25Z"/><path class="cls-2" d="M20.84,7.07l9.53,4.34a.77.77,0,0,1,.38,1l-2.67,5.85a.16.16,0,0,1-.27,0L27,17.05l1.92-4.23a.21.21,0,0,0-.11-.3L21.85,9.35l-1.3-1.94A.23.23,0,0,1,20.84,7.07Z"/><path class="cls-3" d="M39.16.33,34.82,9.85a.79.79,0,0,1-1,.39L27.94,7.57a.16.16,0,0,1,0-.27l1.26-.84L33.4,8.39a.23.23,0,0,0,.31-.12l3.17-6.94L38.82,0A.23.23,0,0,1,39.16.33Z"/><path class="cls-4" d="M28.7,23,33,13.48a.78.78,0,0,1,1-.38l5.85,2.66a.16.16,0,0,1,0,.27l-1.26.84-4.22-1.93a.23.23,0,0,0-.31.12L31,22,29,23.29A.23.23,0,0,1,28.7,23Z"/><text class="cls-5" transform="translate(0 36.78)">SelfJou<tspan class="cls-6" x="42.07" y="0">r</tspan><tspan x="46.41" y="0">n</tspan><tspan class="cls-7" x="53.34" y="0">e</tspan><tspan x="60.9" y="0">y</tspan></text></g></g></svg>