<svg xmlns="http://www.w3.org/2000/svg" viewBox="0 0 97.54 23.41"><defs><style>.cls-1{fill:#f16a37;}.cls-2{fill:#fff;}.cls-3{fill:#d9a529;}.cls-4{fill:#90bf3e;}</style></defs><g id="Layer_2" data-name="Layer 2"><g id="Layer_1-2" data-name="Layer 1"><g id="Layer_2-2" data-name="Layer 2"><g id="Layer_2-2-2" data-name="Layer 2-2"><path class="cls-1" d="M26.54,16.32,17.07,12a.78.78,0,0,1-.38-1l2.62-5.91A.16.16,0,0,1,19.52,5l.05.05.84,1.26-1.93,4.24a.24.24,0,0,0,.12.31l6.94,3.19L26.83,16a.24.24,0,0,1-.11.31A.28.28,0,0,1,26.54,16.32Z"/><path class="cls-2" d="M.4,7.14l9.52,4.34a.77.77,0,0,1,.39,1L7.64,18.35a.15.15,0,0,1-.22,0,.12.12,0,0,1,0,0l-.84-1.26,1.93-4.23a.23.23,0,0,0-.12-.3L1.4,9.42.07,7.48a.24.24,0,0,1,0-.33A.23.23,0,0,1,.4,7.14Z"/><path class="cls-3" d="M18.71.4,14.37,9.92a.77.77,0,0,1-1,.39L7.5,7.64a.17.17,0,0,1,0-.22l0,0,1.25-.84L13,8.46a.23.23,0,0,0,.31-.12L16.45,1.4,18.37.07a.25.25,0,0,1,.34,0A.24.24,0,0,1,18.71.4Z"/><path class="cls-4" d="M8.26,23.07l4.34-9.52a.76.76,0,0,1,1-.38l5.85,2.66a.14.14,0,0,1,.07.2.12.12,0,0,1-.07.07l-1.25.84L14,15a.25.25,0,0,0-.31.12l-3.12,6.94L8.6,23.36a.23.23,0,0,1-.32-.05A.23.23,0,0,1,8.26,23.07Z"/><path class="cls-2" d="M33.56,13.17a4.08,4.08,0,0,1-1.67-1,2.19,2.19,0,0,1-.64-1.59A2.28,2.28,0,0,1,35.13,9a2.88,2.88,0,0,1,.64,1.16l-1.15.45a2.32,2.32,0,0,0-.38-.73,1,1,0,0,0-.71-.29,1,1,0,0,0-.73.3,1,1,0,0,0,0,1.44,3.29,3.29,0,0,0,.93.6,4.77,4.77,0,0,1,1.94,1.17,3,3,0,0,1,.06,4.24l-.06.06a3,3,0,0,1-4.24.05l-.05-.05a3.32,3.32,0,0,1-.9-2l1.22-.45a2.57,2.57,0,0,0,.57,1.53,1.79,1.79,0,0,0,2.52,0,1.72,1.72,0,0,0,.52-1.27,1.69,1.69,0,0,0-.52-1.25A3.63,3.63,0,0,0,33.56,13.17Z"/><path class="cls-2" d="M39.73,16.75a1.8,1.8,0,0,0,1.15.28,2.08,2.08,0,0,0,1.54-.64l.33-.37,1.25.45a8.69,8.69,0,0,1-.66.84,3.35,3.35,0,0,1-2.46,1,3.47,3.47,0,0,1,0-6.94,3.37,3.37,0,0,1,2.16.74l.3.28.34.38-.63.64Zm2.11-3.9a1.81,1.81,0,0,0-1-.16,2.15,2.15,0,0,0-2.16,2.14v0a1.81,1.81,0,0,0,.16,1Z"/><path class="cls-2" d="M46.73,8.42v9.74H45.47V8.42Z"/><path class="cls-2" d="M50.07,13.16v5H48.75v-5h-.56V11.9h.56V10.77a2,2,0,0,1,.6-1.34,1.92,1.92,0,0,1,1.32-.53,4.09,4.09,0,0,1,1.15.26l-.42,1.19a2.58,2.58,0,0,0-.68-.22.75.75,0,0,0-.49.21.67.67,0,0,0-.21.48V11.9h1.12v1.26Z"/><path class="cls-2" d="M56.2,16.07a2.11,2.11,0,0,1-.55,1.57,2,2,0,0,1-1.43.59,1.87,1.87,0,0,1-1.42-.59,2.17,2.17,0,0,1-.59-1.57l1-.39a2.13,2.13,0,0,0,.43,1.14.78.78,0,0,0,.53.16h0a.76.76,0,0,0,.57-.22,1.08,1.08,0,0,0,.18-.74V8.43h1.26Z"/><path class="cls-2" d="M61.16,11.39a3.48,3.48,0,1,1-2.44,1A3.35,3.35,0,0,1,61.16,11.39Zm-1.53,1.94a2.16,2.16,0,0,0,0,3l0,0a2.16,2.16,0,0,0,3.07,0,2.17,2.17,0,0,0-1.54-3.7A2.05,2.05,0,0,0,59.63,13.33Z"/><path class="cls-2" d="M68.74,18.25a2.53,2.53,0,0,1-1.91-.73,2.47,2.47,0,0,1-.76-1.81V11.9h1.26v3.76a1.26,1.26,0,0,0,.4.93,1.4,1.4,0,0,0,1.92,0,1.23,1.23,0,0,0,.4-.94V11.9h1.26v3.81a2.51,2.51,0,0,1-.74,1.81A2.45,2.45,0,0,1,68.74,18.25Z"/><path class="cls-2" d="M74.41,12.75a2.3,2.3,0,0,1,1.74-1v1.32a1.67,1.67,0,0,0-1.1.45A2,2,0,0,0,74.41,15v3.22H73.16V11.9h1.25Z"/><path class="cls-2" d="M78.77,13.58v4.58H77.5V11.9h1.27v.73a1.55,1.55,0,0,1,1.58-1.07,2,2,0,0,1,1.62.72,2.84,2.84,0,0,1,.62,1.79v4.07H81.33v-4a1.23,1.23,0,0,0-.4-.93,1.37,1.37,0,0,0-1.88,0A1.44,1.44,0,0,0,78.77,13.58Z"/><path class="cls-2" d="M86.38,16.75a1.8,1.8,0,0,0,1.15.28,2.08,2.08,0,0,0,1.54-.64l.32-.37,1.26.45a6.86,6.86,0,0,1-.67.84,3.45,3.45,0,0,1-4.89,0,3.47,3.47,0,0,1,2.44-5.93,3.36,3.36,0,0,1,2.15.74l.3.28.35.38-.64.64Zm2.1-3.9a1.81,1.81,0,0,0-1-.16,2.17,2.17,0,0,0-2.17,2.17,1.82,1.82,0,0,0,.17,1Z"/><path class="cls-2" d="M93.53,20.27H92.19l1.67-3.5L91.53,11.9H93l1.59,3.43,1.58-3.43h1.42Z"/></g></g></g></g></svg>